<?xml version="1.0" encoding="UTF-8"?>
<svg id="Layer_2" data-name="Layer 2" xmlns="http://www.w3.org/2000/svg" viewBox="0 0 687.79 489.56">
  <defs>
    <style>
      .cls-1 {
        fill: #fff;
        stroke-width: 0px;
      }
    </style>
  </defs>
  <g id="Layer_1-2" data-name="Layer 1">
    <path class="cls-1" d="M687.79,377.04c0-18.19-14.78-32.98-32.95-32.98s-32.98,14.79-32.98,32.98c0,16.09,11.58,29.46,26.83,32.35v27.22c0,21.89-17.83,39.72-39.74,39.72H107.74c-21.9,0-39.72-17.82-39.72-39.72v-29.29c0-21.89,17.81-39.72,39.72-39.72h218.3c3.03,15.09,16.36,26.48,32.32,26.48,18.18,0,32.98-14.79,32.98-32.98,0-15.92-11.34-29.24-26.36-32.31v-3.25h89c29.18,0,52.94-23.76,52.94-52.95v-29.29c0-29.2-23.76-52.94-52.94-52.94h-236.97c-2.63-12.89-12.81-23.06-25.69-25.7v-3.13h405.8c3.64,14.24,16.48,24.84,31.84,24.84,18.18,0,32.98-14.79,32.98-32.96s-14.8-32.98-32.98-32.98c-16.43,0-29.98,12.12-32.46,27.87H107.74c-21.9,0-39.72-17.82-39.72-39.72v-29.29c0-21.89,17.81-39.72,39.72-39.72h350.04c3.07,15.03,16.39,26.36,32.31,26.36,18.18,0,32.98-14.79,32.98-32.98S508.26,0,490.09,0c-15.92,0-29.24,11.33-32.31,26.36H107.74c-29.18,0-52.94,23.75-52.94,52.94v29.29c0,29.2,23.76,52.94,52.94,52.94h70.34v3.13c-12.88,2.63-23.04,12.8-25.67,25.7H52.94c-29.18,0-52.94,23.75-52.94,52.94v29.29c0,29.2,23.76,52.95,52.94,52.95h298.8v3.25c-12.84,2.63-22.99,12.74-25.66,25.58H107.74c-29.18,0-52.94,23.75-52.94,52.94v29.29c0,29.2,23.76,52.94,52.94,52.94h501.22c29.21,0,52.96-23.75,52.96-52.94v-27.41c14.77-3.26,25.87-16.41,25.87-32.17ZM490.09,13.22c10.9,0,19.75,8.86,19.75,19.75s-8.85,19.75-19.75,19.75-19.75-8.86-19.75-19.75,8.85-19.75,19.75-19.75ZM628.94,133.67c10.9,0,19.75,8.86,19.75,19.75s-8.85,19.74-19.75,19.74-19.75-8.85-19.75-19.74,8.85-19.75,19.75-19.75ZM184.69,177.23c10.9,0,19.75,8.86,19.75,19.75s-8.85,19.75-19.75,19.75-19.73-8.86-19.73-19.75,8.85-19.75,19.73-19.75ZM13.22,272.6v-29.29c0-21.89,17.81-39.72,39.72-39.72h99.46c3.07,15.03,16.37,26.36,32.29,26.36s29.24-11.33,32.31-26.36h236.97c21.9,0,39.72,17.82,39.72,39.72v29.29c0,21.9-17.81,39.73-39.72,39.73H52.94c-21.9,0-39.72-17.82-39.72-39.73ZM358.36,341.36c10.9,0,19.75,8.86,19.75,19.75s-8.85,19.75-19.75,19.75-19.75-8.86-19.75-19.75,8.85-19.75,19.75-19.75ZM654.84,396.79c-10.9,0-19.75-8.86-19.75-19.75s8.85-19.75,19.75-19.75,19.73,8.86,19.73,19.75-8.85,19.75-19.73,19.75Z"/>
  </g>
</svg>