<svg width="387" height="387" viewBox="0 0 387 387" fill="none" xmlns="http://www.w3.org/2000/svg">
<path d="M193.5 78.1974C196.223 78.1974 198.96 78.6567 201.717 79.588L277.817 106.646V106.647C282.337 108.324 285.992 111.008 288.827 114.71C291.632 118.373 293.016 122.457 293.008 127.026V183.876C293.008 211.517 284.687 237.343 267.988 261.395C251.585 285.019 229.657 301.303 202.142 310.279L200.828 310.701C199.651 311.073 198.478 311.351 197.311 311.535C196.16 311.717 194.891 311.812 193.5 311.812C192.109 311.812 190.839 311.717 189.688 311.535C188.521 311.351 187.35 311.073 186.172 310.701C158.041 301.81 135.674 285.382 119.011 261.382C102.312 237.33 93.9919 211.509 93.9918 183.876V127.028C93.9919 122.459 95.3807 118.374 98.1862 114.71C101.019 111.01 104.665 108.327 109.172 106.65L185.27 79.5919C188.032 78.6578 190.773 78.1974 193.5 78.1974Z" stroke="black" stroke-width="4"/>
<path d="M193.5 96.2492C195.967 96.2492 198.435 96.6658 200.902 97.4992L264.344 120C268.398 121.5 271.704 123.918 274.262 127.251C276.821 130.585 278.098 134.334 278.091 138.501V185.754C278.09 209.088 271.041 230.883 256.943 251.137C242.845 271.391 223.9 285.266 200.109 292.76C199.052 293.093 197.994 293.343 196.936 293.51C195.879 293.677 194.733 293.76 193.5 293.76C192.266 293.76 191.12 293.677 190.063 293.51C189.006 293.343 187.949 293.093 186.891 292.76C163.1 285.26 144.156 271.382 130.057 251.127C115.959 230.873 108.91 209.082 108.91 185.754V138.501C108.91 134.335 110.189 130.584 112.748 127.251C115.307 123.918 118.61 121.5 122.656 120L186.098 97.4992C188.565 96.6659 191.033 96.2492 193.5 96.2492ZM192.971 132.342C180.666 132.342 170.691 141.881 170.691 153.648V166.431H166.235C163.774 166.431 161.779 168.339 161.779 170.692V213.302C161.779 215.655 163.775 217.563 166.235 217.563H219.708C222.168 217.563 224.164 215.655 224.164 213.302V170.692C224.164 168.339 222.168 166.431 219.708 166.431H215.252V153.648C215.252 141.881 205.276 132.342 192.971 132.342ZM192.971 140.864C200.354 140.864 206.34 146.588 206.34 153.648V166.431H179.603V153.648C179.603 146.588 185.589 140.864 192.971 140.864Z" fill="black"/>
<path d="M193.5 178.078C196.945 178.078 199.737 180.87 199.737 184.315C199.737 187.759 196.945 190.551 193.5 190.551C190.056 190.551 187.263 187.759 187.263 184.315C187.263 180.87 190.056 178.078 193.5 178.078Z" stroke="black" stroke-width="4"/>
<rect x="189.382" y="188.433" width="8.23696" height="16.4739" rx="4" fill="black"/>
<circle cx="10.0695" cy="242.583" r="10.0695" fill="black"/>
<path d="M8.02945 241.624L24.8531 216.56H85.6475" stroke="black" stroke-width="4" stroke-linecap="round"/>
<circle cx="109.876" cy="14.8674" r="9.70713" transform="matrix(0.190689 0.981521 -0.98178 0.190689 103.52 -95.8129)" fill="black"/>
<path d="M110.87 11.8389L140.027 21.9496L151.62 74.5368" stroke="black" stroke-width="4" stroke-linecap="round"/>
<ellipse cx="9.79417" cy="9.79317" rx="9.79417" ry="9.79317" transform="matrix(0.206988 -0.977258 -0.977358 -0.207009 116.971 383.673)" fill="black"/>
<path d="M110.32 375.065L139.667 365.236L152.264 311.998" stroke="black" stroke-width="4" stroke-linecap="round"/>
<circle cx="10.0695" cy="10.0695" r="10.0695" transform="matrix(-1 0 0 1 387 232.514)" fill="black"/>
<path d="M378.971 241.624L362.147 216.56H301.352" stroke="black" stroke-width="4" stroke-linecap="round"/>
<circle cx="10.0695" cy="10.0695" r="10.0695" transform="matrix(1 0 0 -1 0 107.365)" fill="black"/>
<path d="M8.02945 98.2544L24.8531 123.319H85.6475" stroke="black" stroke-width="4" stroke-linecap="round"/>
<ellipse cx="9.72568" cy="9.72373" rx="9.72568" ry="9.72373" transform="matrix(-0.244283 0.967737 0.967931 0.244332 270.529 3.85495)" fill="black"/>
<path d="M276.865 12.5614L247.117 21.234L232.237 73.1749" stroke="black" stroke-width="4" stroke-linecap="round"/>
<circle cx="274.626" cy="372.967" r="9.78377" transform="matrix(-0.141006 -0.989958 0.990059 -0.141006 -55.9095 697.426)" fill="black"/>
<path d="M273.406 375.869L244.864 364.296L236.291 310.421" stroke="black" stroke-width="4" stroke-linecap="round"/>
<circle cx="376.93" cy="97.2954" r="10.0695" transform="rotate(180 376.93 97.2954)" fill="black"/>
<path d="M378.971 98.2544L362.147 123.319H301.352" stroke="black" stroke-width="4" stroke-linecap="round"/>
</svg>
